<?xml version="1.0" encoding="iso-8859-1"?>
<!-- Generator: Adobe Illustrator 19.0.0, SVG Export Plug-In . SVG Version: 6.00 Build 0)  -->
<svg xmlns="http://www.w3.org/2000/svg" xmlns:xlink="http://www.w3.org/1999/xlink" version="1.1" id="Layer_1" x="0px" y="0px" viewBox="0 0 511.999 511.999" style="enable-background:new 0 0 511.999 511.999;" xml:space="preserve">
<path style="fill:#00DCF9;" d="M491.768,302.863c0,18.664-15.133,33.796-33.796,33.796h-78.244c-7.22,0-14.223-2.443-19.88-6.923  c-2.829-2.235-5.994-3.976-9.357-5.143c-3.353-1.167-6.914-1.78-10.524-1.78h-88.619c-5.905,0-11.691,1.632-16.725,4.718  l-7.19,4.411c-5.034,3.086-10.82,4.718-16.725,4.718H88.026c-0.485,0-0.979,0-1.484-0.01c-5.816-0.099-12.423-0.762-19.287-1.899  c-27.832-4.639-59.838-17.16-59.838-31.887c0,0,164.51,0,266.956,0h42.371C411.744,302.863,491.768,302.863,491.768,302.863z"/>
<path style="fill:#FF4538;" d="M233.448,302.867c126.222,0,258.32,0,258.32,0s10.757-21.514,12.559-48.773  c-9.721-11.94-25.986-25.603-46.351-18.811c-32.598,10.87-55.757,11.253-70.174-11.658c-24.95-1.543-46.047-7.727-63.292-23.068  c-3.717-3.3-7.254-7.029-10.611-11.23l-148.785,57.221c0,0-51.454,20.579-65.826-7.107c-13.663,3.559-27.394,6.86-41.181,9.924  c-25.344,5.632-50.688,19.712-50.688,53.504c0,0,85.111,0,183.978,0"/>
<path style="fill:#00BC4D;" d="M387.801,223.625c14.418,22.911,37.577,22.528,70.174,11.658c20.365-6.792,36.63,6.871,46.351,18.811  c1.707-25.745-4.573-56.607-35.441-79.321c-3.665-2.697-8.732,0.297-8.27,4.824c2.763,27.079-19.426,44.423-58.959,44.423  C396.914,224.019,392.296,223.895,387.801,223.625z"/>
<path style="fill:#00DCF9;" d="M99.287,239.439c14.373,27.687,65.826,7.107,65.826,7.107l148.785-57.221  c-4.922-6.15-9.462-13.314-13.618-21.627c-12.818,4.269-43.468,16.648-76.584,30.367  C183.248,214.828,141.617,228.389,99.287,239.439z"/>
<g>
	<path style="fill:#00BC4D;" d="M300.281,167.699c4.156,8.313,8.696,15.477,13.618,21.627c3.357,4.201,6.894,7.93,10.611,11.23   c7.885-4.573,39.345-25.603,9.563-55.385C300.281,167.699,300.281,167.699,300.281,167.699z"/>
	<path style="fill:#00BC4D;" d="M86.542,336.649v20.533c0,5.321-4.322,9.643-9.643,9.643s-9.643-4.322-9.643-9.643V334.75   C74.12,335.887,80.727,336.55,86.542,336.649z"/>
	<path style="fill:#00BC4D;" d="M138.715,366.825L138.715,366.825c-5.326,0-9.643-4.317-9.643-9.643v-20.523h19.287v20.523   C148.358,362.508,144.041,366.825,138.715,366.825z"/>
	<path style="fill:#00BC4D;" d="M200.531,366.825L200.531,366.825c-5.326,0-9.643-4.317-9.643-9.643v-20.523h19.287v20.523   C210.174,362.508,205.857,366.825,200.531,366.825z"/>
	<path style="fill:#00BC4D;" d="M389.325,366.825L389.325,366.825c-5.326,0-9.643-4.317-9.643-9.643v-20.523h19.287v20.523   C398.968,362.508,394.651,366.825,389.325,366.825z"/>
	<path style="fill:#00BC4D;" d="M436.549,366.825L436.549,366.825c-5.326,0-9.643-4.317-9.643-9.643v-20.523h19.286v20.523   C446.192,362.508,441.875,366.825,436.549,366.825z"/>
</g>
<path style="fill:#F7301B;" d="M106.442,247.832c-2.265,0.514-4.53,1.029-6.795,1.533c-25.35,5.628-50.689,19.712-50.689,53.498  c-25.805,0-41.54,0-41.54,0c0-33.786,25.34-47.87,50.689-53.498c13.788-3.066,27.516-6.369,41.184-9.93  C101.131,242.975,103.574,245.735,106.442,247.832z"/>
<path style="fill:#FF504C;" d="M457.976,235.283c-32.598,10.87-55.757,11.253-70.174-11.658  c-24.95-1.543-46.047-7.727-63.292-23.068c-3.717-3.3-7.254-7.029-10.611-11.23l-33.148,12.748  c18.534,39.885,46.573,74.451,81.216,100.792c73.856,0,129.8,0,129.8,0s10.757-21.514,12.559-48.773  C494.606,242.154,478.341,228.491,457.976,235.283z"/>
<path style="fill:#46EAFF;" d="M271.207,178.7c2.822,7.972,6.009,15.769,9.543,23.374l33.148-12.748  c-4.922-6.15-9.462-13.314-13.618-21.627C294.131,169.747,283.869,173.666,271.207,178.7z"/>
<path style="fill:#00B5CF;" d="M128.251,336.659H88.026c-0.485,0-0.979,0-1.484-0.01c-5.816-0.099-12.423-0.762-19.287-1.899  c-27.832-4.639-59.838-17.16-59.838-31.887c0,0,16.606,0,41.214,0c0,14.727,31.017,27.249,58.849,31.887  c6.864,1.137,13.471,1.8,19.287,1.899C127.272,336.659,127.766,336.659,128.251,336.659z"/>
<path style="fill:#46EAFF;" d="M415.031,336.659h42.941c18.663,0,33.796-15.133,33.796-33.796c0,0-56.477,0-130.86,0  C377.624,315.943,395.754,327.296,415.031,336.659z"/>
<g>
	<path style="fill:#009325;" d="M81.726,365.529c-1.414,0.821-3.066,1.296-4.827,1.296c-5.321,0-9.643-4.322-9.643-9.643V334.75   c3.294,0.544,6.528,0.979,9.643,1.296v21.136C76.899,360.752,78.838,363.868,81.726,365.529z"/>
	<path style="fill:#009325;" d="M143.542,365.529c-1.414,0.821-3.066,1.296-4.827,1.296c-5.321,0-9.643-4.322-9.643-9.643v-20.523   h9.643v20.523C138.715,360.752,140.654,363.868,143.542,365.529z"/>
	<path style="fill:#009325;" d="M205.358,365.529c-1.414,0.821-3.066,1.296-4.827,1.296c-5.321,0-9.643-4.322-9.643-9.643v-20.523   h9.643v20.523C200.531,360.752,202.47,363.868,205.358,365.529z"/>
	<path style="fill:#009325;" d="M394.149,365.529c-1.424,0.831-3.066,1.296-4.827,1.296c-5.321,0-9.643-4.322-9.643-9.643v-20.523   h9.643v20.523C389.322,360.752,391.261,363.868,394.149,365.529z"/>
	<path style="fill:#009325;" d="M441.366,365.529c-1.414,0.831-3.066,1.296-4.817,1.296c-5.331,0-9.643-4.322-9.643-9.643v-20.523   h9.643v20.523C436.549,360.742,438.488,363.868,441.366,365.529z"/>
</g>
<path d="M473.282,168.798c-4.069-2.994-9.322-3.299-13.707-0.793c-4.362,2.492-6.85,7.337-6.339,12.345  c0.891,8.727-1.312,16.09-6.546,21.886c-8.367,9.264-24.36,14.366-45.034,14.366c-4.689,0-9.196-0.128-13.395-0.38  c-0.001,0-0.001,0-0.002,0c-21.39-1.323-37.928-6.245-51.236-15.312c7.168-5.812,15.21-14.824,16.771-26.772  c1.513-11.582-3.357-23.091-14.477-34.21c-2.5-2.5-6.417-2.889-9.36-0.927l-32.977,21.984c-11.741,3.997-37.333,14.16-76.123,30.23  c-2.281,0.944-4.565,1.879-6.853,2.804c-3.799,1.535-5.634,5.858-4.1,9.656c1.535,3.799,5.858,5.633,9.656,4.1  c2.329-0.94,4.654-1.892,6.975-2.854c33.608-13.923,57.143-23.349,70.169-28.102c0.052,0.093,0.105,0.182,0.156,0.274  c0.145,0.26,0.293,0.516,0.44,0.774c0.382,0.673,0.767,1.341,1.157,2.001c0.177,0.3,0.354,0.599,0.533,0.896  c0.395,0.659,0.794,1.31,1.197,1.955c0.149,0.238,0.296,0.479,0.445,0.716c0.521,0.824,1.047,1.639,1.579,2.439l-12.818,4.93  l-0.893-1.37c-2.237-3.432-6.831-4.401-10.265-2.164c-3.001,1.956-4.118,5.715-2.856,8.923l-19.458,7.484l-0.834-1.279  c-2.237-3.432-6.832-4.401-10.265-2.164c-2.97,1.936-4.091,5.637-2.89,8.823l-19.484,7.493l-0.775-1.188  c-2.237-3.432-6.832-4.401-10.265-2.165c-2.939,1.916-4.064,5.56-2.924,8.723l-19.531,7.511l-0.687-1.055  c-2.237-3.432-6.832-4.401-10.265-2.164c-2.893,1.885-4.027,5.446-2.974,8.574l-12.663,4.87c-0.01,0.004-0.054,0.021-0.107,0.041  c-0.011,0.004-0.021,0.008-0.033,0.012c-0.062,0.023-0.151,0.057-0.253,0.094c-0.026,0.01-0.056,0.021-0.085,0.031  c-0.118,0.044-0.252,0.093-0.412,0.15c-0.016,0.006-0.035,0.013-0.052,0.019c-0.154,0.055-0.329,0.118-0.518,0.184  c-0.039,0.014-0.076,0.027-0.116,0.041c-0.206,0.072-0.434,0.151-0.677,0.235c-0.045,0.015-0.092,0.031-0.138,0.047  c-0.262,0.09-0.54,0.184-0.84,0.284c-0.013,0.004-0.028,0.009-0.042,0.014c-0.255,0.085-0.532,0.175-0.813,0.266l-1.479-2.269  c-2.237-3.432-6.832-4.401-10.265-2.164c-2.8,1.824-3.958,5.218-3.077,8.27c-0.434,0.083-0.868,0.166-1.308,0.245  c-0.074,0.013-0.148,0.027-0.223,0.04c-0.593,0.104-1.191,0.205-1.794,0.3c-0.062,0.01-0.125,0.019-0.187,0.029  c-1.236,0.192-2.489,0.361-3.75,0.502c-0.077,0.009-0.155,0.018-0.232,0.026c-0.61,0.066-1.222,0.125-1.834,0.177  c-0.08,0.007-0.161,0.013-0.241,0.02c-1.259,0.102-2.521,0.171-3.776,0.202c-0.075,0.002-0.15,0.004-0.224,0.006  c-0.607,0.013-1.212,0.015-1.815,0.009c-0.088-0.001-0.176-0.003-0.264-0.004c-0.615-0.01-1.228-0.028-1.835-0.06  c-0.018-0.001-0.035-0.002-0.052-0.003c-0.599-0.032-1.192-0.077-1.782-0.131c-0.071-0.006-0.143-0.012-0.214-0.019  c-0.578-0.057-1.15-0.126-1.716-0.206c-0.096-0.014-0.191-0.028-0.286-0.042c-0.57-0.085-1.136-0.181-1.692-0.292  c-0.044-0.009-0.087-0.019-0.13-0.028c-0.54-0.11-1.073-0.234-1.598-0.37c-0.063-0.016-0.126-0.031-0.189-0.047  c-0.529-0.141-1.047-0.297-1.558-0.466c-0.093-0.031-0.186-0.062-0.279-0.094c-0.508-0.174-1.007-0.361-1.495-0.565  c-0.057-0.024-0.113-0.05-0.171-0.075c-0.471-0.202-0.932-0.418-1.383-0.649c-0.034-0.018-0.069-0.034-0.103-0.051  c27.454-7.512,54.037-15.962,79.184-25.178c3.847-1.41,5.822-5.67,4.413-9.517c-1.41-3.847-5.673-5.822-9.517-4.413  c-28.402,10.408-58.681,19.831-89.997,28.005c-0.001,0-0.001,0-0.002,0.001c-13.299,3.464-27.065,6.781-40.914,9.859  C19.539,250.334,0.003,271.337,0,302.86c0,0.001,0,0.002,0,0.002s0,0.001,0,0.002s0,0.001,0,0.002c0,0.002,0,0.004,0,0.005  c0.011,20.467,35.117,32.983,59.838,38.041v16.269c0,9.408,7.654,17.062,17.061,17.062s17.061-7.654,17.061-17.062v-13.105h27.694  v13.105c0,9.408,7.654,17.062,17.061,17.062s17.061-7.654,17.061-17.062v-13.105h27.693v13.105c0,9.408,7.654,17.062,17.061,17.062  s17.061-7.654,17.061-17.062v-13.733c4.836-0.858,9.494-2.594,13.72-5.185l7.188-4.409c3.868-2.371,8.311-3.625,12.848-3.625h88.62  c2.757,0,5.477,0.46,8.091,1.37c2.584,0.897,5.003,2.228,7.184,3.951c4.97,3.936,10.841,6.598,17.021,7.797v13.833  c0,9.408,7.654,17.062,17.061,17.062s17.061-7.654,17.061-17.062v-13.105h13.102v13.105c0,9.408,7.654,17.062,17.061,17.062  c9.408,0,17.061-7.654,17.061-17.062v-13.105h4.362c22.135,0,40.242-17.541,41.169-39.451c2.571-5.601,10.965-25.513,12.587-50.039  v-0.001C514.107,218.721,500.812,189.056,473.282,168.798z M457.7,212.179c7.032-7.786,10.638-17.564,10.561-28.506  c16.65,13.609,26.156,31.231,28.393,52.58c-0.155-0.117-0.311-0.225-0.467-0.34c-0.279-0.206-0.557-0.41-0.837-0.61  c-0.278-0.199-0.557-0.394-0.836-0.586s-0.559-0.383-0.84-0.569c-0.282-0.187-0.564-0.37-0.847-0.551  c-0.28-0.179-0.56-0.355-0.841-0.528c-0.284-0.174-0.569-0.345-0.854-0.513c-0.282-0.167-0.564-0.33-0.847-0.49  c-0.286-0.162-0.572-0.32-0.859-0.475c-0.283-0.153-0.566-0.303-0.849-0.45c-0.289-0.149-0.579-0.296-0.869-0.439  c-0.283-0.14-0.566-0.276-0.85-0.41c-0.291-0.137-0.583-0.271-0.875-0.401c-0.285-0.127-0.569-0.251-0.855-0.372  c-0.292-0.124-0.585-0.245-0.878-0.362c-0.286-0.114-0.572-0.225-0.859-0.333c-0.294-0.111-0.588-0.219-0.883-0.323  c-0.287-0.101-0.574-0.199-0.862-0.293c-0.295-0.098-0.591-0.193-0.887-0.284c-0.288-0.089-0.577-0.173-0.866-0.255  c-0.296-0.084-0.591-0.166-0.887-0.244c-0.29-0.076-0.581-0.147-0.871-0.217c-0.296-0.071-0.593-0.14-0.89-0.204  c-0.292-0.063-0.584-0.122-0.876-0.178c-0.296-0.058-0.591-0.113-0.888-0.164c-0.294-0.051-0.589-0.096-0.884-0.14  c-0.296-0.044-0.591-0.086-0.887-0.124c-0.295-0.037-0.589-0.069-0.884-0.1c-0.297-0.031-0.594-0.06-0.892-0.084  c-0.295-0.024-0.591-0.042-0.887-0.06c-0.296-0.018-0.593-0.034-0.89-0.044c-0.297-0.011-0.595-0.016-0.892-0.02  c-0.184-0.002-0.368-0.013-0.552-0.013c-0.121,0-0.242,0.006-0.362,0.008c-0.246,0.002-0.492,0.008-0.738,0.015  c-0.325,0.009-0.649,0.021-0.974,0.038c-0.249,0.013-0.497,0.028-0.746,0.046c-0.323,0.022-0.647,0.05-0.97,0.081  c-0.249,0.024-0.497,0.048-0.746,0.077c-0.326,0.037-0.652,0.081-0.978,0.126c-0.246,0.034-0.492,0.067-0.737,0.106  c-0.331,0.052-0.661,0.112-0.991,0.172c-0.24,0.044-0.481,0.085-0.721,0.134c-0.343,0.069-0.686,0.147-1.03,0.226  c-0.227,0.051-0.454,0.1-0.681,0.155c-0.38,0.093-0.759,0.197-1.138,0.301c-0.189,0.052-0.378,0.099-0.568,0.153  c-0.569,0.165-1.137,0.34-1.705,0.529c-1.299,0.433-2.564,0.838-3.815,1.23c-0.349,0.109-0.693,0.215-1.038,0.321  c-0.985,0.303-1.954,0.593-2.909,0.87c-0.276,0.08-0.556,0.164-0.83,0.242c-1.183,0.336-2.345,0.653-3.483,0.949  c-0.239,0.063-0.471,0.118-0.708,0.178c-0.918,0.233-1.82,0.453-2.709,0.659c-0.313,0.073-0.626,0.145-0.936,0.214  c-1.001,0.224-1.987,0.434-2.952,0.622c-0.086,0.017-0.176,0.037-0.262,0.054c-1.037,0.2-2.048,0.374-3.044,0.532  c-0.28,0.044-0.555,0.084-0.832,0.125c-0.766,0.114-1.52,0.215-2.262,0.305c-0.249,0.03-0.501,0.063-0.747,0.09  c-0.937,0.103-1.856,0.188-2.755,0.249c-0.178,0.012-0.349,0.017-0.525,0.028c-0.736,0.044-1.459,0.074-2.17,0.089  c-0.258,0.006-0.516,0.01-0.771,0.012c-0.734,0.006-1.455-0.003-2.162-0.028c-0.127-0.004-0.259-0.004-0.386-0.009  c-0.813-0.036-1.605-0.097-2.384-0.174c-0.218-0.021-0.431-0.049-0.646-0.074c-0.597-0.069-1.184-0.151-1.761-0.246  c-0.206-0.034-0.414-0.065-0.617-0.102c-0.736-0.134-1.459-0.285-2.163-0.46c-0.109-0.027-0.213-0.061-0.32-0.088  c-0.605-0.158-1.197-0.333-1.779-0.523c-0.197-0.064-0.393-0.13-0.587-0.198c-0.56-0.196-1.11-0.406-1.649-0.632  c-0.113-0.047-0.23-0.09-0.342-0.138c-0.638-0.277-1.26-0.579-1.869-0.899c-0.046-0.024-0.09-0.05-0.135-0.075  C429.205,230.628,446.994,224.032,457.7,212.179z M332.859,154.895c4.844,6.064,6.935,11.873,6.224,17.318  c-1.092,8.357-8.36,15.056-13.686,18.917c-0.142-0.146-0.287-0.288-0.428-0.435c-0.621-0.646-1.232-1.31-1.839-1.982  c-0.284-0.314-0.571-0.62-0.852-0.94c-0.878-1.002-1.744-2.026-2.588-3.082c-0.765-0.956-1.517-1.95-2.263-2.962  c-0.189-0.256-0.378-0.515-0.565-0.775c-0.709-0.981-1.412-1.98-2.102-3.011c-0.034-0.05-0.068-0.098-0.101-0.147  c-0.72-1.078-1.426-2.191-2.124-3.321c-0.175-0.282-0.348-0.567-0.521-0.853c-0.645-1.063-1.282-2.143-1.908-3.25  c-0.042-0.075-0.086-0.147-0.128-0.222L332.859,154.895z M79.125,357.182c0,1.228-0.998,2.226-2.225,2.226s-2.225-0.998-2.225-2.226  v-13.908c0.116,0.013,0.226,0.02,0.342,0.033c1.366,0.15,2.713,0.283,4.03,0.389c0.026,0.002,0.053,0.006,0.078,0.008  C79.125,343.704,79.125,357.182,79.125,357.182z M140.94,357.182c0,1.228-0.998,2.226-2.225,2.226s-2.225-0.998-2.225-2.226v-13.105  h4.451L140.94,357.182L140.94,357.182z M202.756,357.182c0,1.228-0.998,2.226-2.225,2.226s-2.225-0.998-2.225-2.226v-13.105h4.451  L202.756,357.182L202.756,357.182z M391.55,357.182c0,1.228-0.998,2.226-2.225,2.226c-1.227,0-2.225-0.998-2.225-2.226v-13.105  h4.451L391.55,357.182L391.55,357.182z M438.774,357.182c0,1.228-0.998,2.226-2.225,2.226c-1.227,0-2.225-0.998-2.225-2.226v-13.105  h4.451L438.774,357.182L438.774,357.182z M486.95,295.445H231.934c-4.097,0-7.418,3.321-7.418,7.417  c0,4.097,3.321,7.418,7.418,7.418h1.437c0.026,0,0.05,0.004,0.076,0.004h249.84c-3.214,10.943-13.346,18.957-25.315,18.957h-11.78  h-19.287h-27.937h-19.24c-5.518,0-10.942-1.89-15.282-5.327c-3.492-2.758-7.369-4.888-11.517-6.328  c-4.18-1.455-8.541-2.192-12.962-2.192h-88.62c-7.275,0-14.399,2.009-20.604,5.813l-7.188,4.409  c-3.868,2.371-8.311,3.625-12.849,3.625h-0.534h-19.287h-42.529h-19.287H88.026c-0.44-0.001-0.886,0-1.358-0.009  c-1.275-0.021-2.607-0.076-3.981-0.157c-0.209-0.013-0.421-0.027-0.632-0.041c-3.49-0.227-7.248-0.635-11.138-1.217  c-0.809-0.121-1.624-0.25-2.443-0.385c-21.278-3.547-39.195-10.702-47.928-17.148h170.849c0.026,0,0.051-0.003,0.076-0.004h8.812  c4.097,0,7.418-3.321,7.418-7.418s-3.321-7.417-7.418-7.417H15.352c2.875-19.881,17.763-32.93,44.363-38.841  c12.23-2.718,24.397-5.621,36.246-8.646c0.091,0.116,0.187,0.226,0.279,0.34c0.189,0.235,0.378,0.47,0.571,0.698  c0.127,0.149,0.257,0.294,0.386,0.44c0.19,0.215,0.381,0.429,0.576,0.637c0.134,0.144,0.271,0.284,0.407,0.425  c0.196,0.202,0.394,0.402,0.595,0.597c0.139,0.135,0.279,0.268,0.419,0.4c0.205,0.192,0.412,0.381,0.622,0.566  c0.141,0.125,0.282,0.25,0.425,0.371c0.218,0.187,0.438,0.368,0.66,0.547c0.138,0.112,0.276,0.224,0.416,0.333  c0.238,0.186,0.479,0.365,0.721,0.542c0.129,0.095,0.256,0.191,0.386,0.283c0.277,0.197,0.557,0.386,0.839,0.573  c0.099,0.066,0.196,0.135,0.296,0.199c0.781,0.506,1.581,0.977,2.398,1.414c0.046,0.024,0.093,0.047,0.138,0.071  c0.36,0.19,0.722,0.375,1.088,0.552c0.103,0.05,0.207,0.096,0.31,0.145c0.312,0.147,0.626,0.292,0.943,0.431  c0.124,0.055,0.25,0.106,0.375,0.16c0.299,0.127,0.599,0.251,0.902,0.371c0.135,0.053,0.27,0.104,0.406,0.156  c0.298,0.114,0.598,0.225,0.899,0.331c0.137,0.048,0.274,0.096,0.412,0.143c0.306,0.104,0.613,0.205,0.922,0.303  c0.133,0.042,0.266,0.084,0.4,0.125c0.321,0.098,0.643,0.191,0.967,0.281c0.123,0.034,0.245,0.069,0.368,0.102  c0.35,0.095,0.701,0.184,1.054,0.27c0.097,0.024,0.194,0.049,0.292,0.072c0.408,0.097,0.819,0.188,1.231,0.274  c0.043,0.009,0.086,0.019,0.129,0.028c1.407,0.291,2.834,0.52,4.272,0.695c0.04,0.005,0.081,0.009,0.121,0.014  c0.428,0.051,0.857,0.098,1.286,0.14c0.088,0.008,0.176,0.016,0.264,0.024c0.385,0.036,0.77,0.068,1.156,0.097  c0.106,0.008,0.211,0.015,0.317,0.021c0.372,0.025,0.744,0.048,1.117,0.067c0.11,0.006,0.221,0.011,0.331,0.016  c0.37,0.017,0.739,0.031,1.109,0.042c0.111,0.003,0.222,0.006,0.333,0.009c0.376,0.009,0.752,0.015,1.128,0.019  c0.1,0.001,0.2,0.002,0.3,0.003c0.119,0,0.238,0.003,0.357,0.003c0.184,0,0.367-0.005,0.55-0.006  c0.264-0.002,0.529-0.004,0.793-0.009c0.281-0.005,0.562-0.011,0.843-0.019c0.263-0.008,0.525-0.017,0.788-0.027  c0.278-0.011,0.557-0.021,0.835-0.035c0.274-0.013,0.546-0.03,0.819-0.045c0.449-0.026,0.897-0.056,1.344-0.089  c0.306-0.023,0.613-0.044,0.918-0.07c0.279-0.023,0.557-0.05,0.835-0.076c0.253-0.024,0.507-0.047,0.759-0.073  c0.281-0.029,0.561-0.059,0.842-0.09c0.246-0.027,0.49-0.055,0.735-0.083c0.28-0.033,0.558-0.067,0.836-0.102  c0.245-0.031,0.488-0.063,0.732-0.096c0.272-0.037,0.545-0.072,0.815-0.111c0.257-0.037,0.511-0.075,0.766-0.113  c0.472-0.071,0.94-0.144,1.405-0.219c0.246-0.04,0.493-0.08,0.737-0.121c0.266-0.045,0.529-0.092,0.793-0.139  c0.233-0.042,0.466-0.083,0.697-0.125c0.262-0.048,0.523-0.097,0.782-0.146c0.226-0.043,0.45-0.086,0.673-0.13  c0.258-0.051,0.515-0.102,0.771-0.154c0.225-0.046,0.448-0.092,0.671-0.139c0.245-0.051,0.492-0.102,0.734-0.154  c0.246-0.053,0.488-0.107,0.732-0.162c0.414-0.092,0.823-0.185,1.228-0.278c0.172-0.04,0.346-0.08,0.516-0.12l6.135,9.414  c1.422,2.182,3.797,3.368,6.221,3.368c1.388,0,2.793-0.39,4.044-1.204c3.432-2.237,4.401-6.833,2.164-10.265l-3.754-5.76  c0.014-0.005,0.027-0.01,0.04-0.015c0.073-0.027,0.146-0.055,0.213-0.08c0.067-0.025,0.127-0.048,0.188-0.071  c0.058-0.022,0.112-0.043,0.164-0.063c0.055-0.021,0.105-0.041,0.153-0.059c0.049-0.019,0.09-0.035,0.131-0.051  c0.033-0.013,0.067-0.026,0.094-0.037c0.062-0.024,0.114-0.045,0.149-0.059l15.301-5.885l6.355,9.751  c1.422,2.182,3.797,3.369,6.221,3.369c1.388,0,2.793-0.39,4.044-1.205c3.432-2.236,4.401-6.833,2.164-10.265l-4.624-7.096  l19.336-7.437l6.268,9.617c1.422,2.182,3.797,3.369,6.221,3.369c1.388,0,2.793-0.39,4.044-1.205  c3.432-2.237,4.401-6.833,2.164-10.265l-4.537-6.961l19.313-7.428l6.208,9.526c1.422,2.182,3.797,3.368,6.221,3.368  c1.388,0,2.793-0.39,4.044-1.204c3.432-2.236,4.401-6.833,2.164-10.265l-4.478-6.871l19.313-7.428l6.15,9.436  c1.422,2.182,3.797,3.368,6.221,3.368c1.388,0,2.793-0.39,4.044-1.204c3.432-2.237,4.401-6.833,2.164-10.265l-4.419-6.78  l13.958-5.368c0.655,0.736,1.318,1.458,1.988,2.167c0.064,0.068,0.13,0.133,0.194,0.2c0.796,0.839,1.605,1.654,2.421,2.454  c0.223,0.219,0.446,0.436,0.67,0.652c0.881,0.848,1.769,1.681,2.671,2.48c0,0,0,0,0.001,0c0.002,0.001,0.003,0.003,0.005,0.004  c0.003,0.002,0.006,0.004,0.009,0.007c16.366,14.554,36.8,22.432,64.083,24.656c0.275,0.381,0.561,0.731,0.841,1.099  c0.275,0.361,0.547,0.732,0.827,1.081c0.354,0.44,0.717,0.855,1.077,1.276c0.277,0.323,0.551,0.658,0.832,0.97  c0.38,0.421,0.77,0.815,1.157,1.215c0.272,0.281,0.54,0.576,0.815,0.846c0.427,0.42,0.864,0.812,1.3,1.208  c0.245,0.223,0.486,0.461,0.734,0.676c0.591,0.514,1.191,0.998,1.796,1.47c0.099,0.078,0.195,0.165,0.295,0.241  c0.705,0.541,1.42,1.053,2.143,1.539c0.25,0.168,0.507,0.317,0.76,0.479c0.479,0.307,0.956,0.618,1.442,0.902  c0.303,0.177,0.613,0.334,0.919,0.503c0.443,0.245,0.884,0.494,1.332,0.721c0.33,0.167,0.667,0.315,1,0.473  c0.432,0.204,0.861,0.413,1.298,0.601c0.348,0.15,0.701,0.284,1.052,0.424c0.429,0.172,0.857,0.348,1.29,0.505  c0.361,0.131,0.726,0.247,1.089,0.368c0.431,0.144,0.861,0.291,1.296,0.422c0.371,0.111,0.745,0.209,1.119,0.311  c0.433,0.118,0.866,0.238,1.303,0.344c0.381,0.092,0.765,0.172,1.148,0.255c0.436,0.094,0.872,0.189,1.311,0.271  c0.387,0.073,0.777,0.135,1.166,0.199c0.442,0.072,0.883,0.144,1.328,0.205c0.391,0.054,0.785,0.099,1.179,0.144  c0.448,0.051,0.896,0.101,1.346,0.142c0.396,0.036,0.794,0.064,1.193,0.092c0.452,0.032,0.904,0.061,1.359,0.082  c0.401,0.019,0.802,0.031,1.205,0.042c0.457,0.012,0.915,0.021,1.374,0.024c0.403,0.002,0.806,0,1.21-0.004  c0.463-0.006,0.926-0.015,1.391-0.03c0.405-0.013,0.81-0.029,1.216-0.049c0.468-0.023,0.937-0.05,1.407-0.082  c0.404-0.027,0.809-0.057,1.215-0.09c0.474-0.039,0.95-0.083,1.426-0.131c0.404-0.041,0.809-0.082,1.214-0.128  c0.48-0.055,0.961-0.115,1.442-0.178c0.402-0.052,0.804-0.105,1.206-0.163c0.487-0.07,0.975-0.146,1.464-0.224  c0.399-0.063,0.798-0.126,1.197-0.194c0.494-0.084,0.988-0.175,1.483-0.267c0.395-0.073,0.789-0.145,1.185-0.223  c0.502-0.098,1.005-0.203,1.507-0.309c0.388-0.081,0.775-0.16,1.162-0.246c0.513-0.112,1.025-0.231,1.538-0.35  c0.378-0.088,0.757-0.173,1.135-0.264c0.521-0.125,1.041-0.257,1.562-0.389c0.371-0.094,0.743-0.185,1.114-0.282  c0.531-0.138,1.061-0.283,1.591-0.427c0.359-0.097,0.718-0.192,1.077-0.292c0.553-0.154,1.105-0.314,1.657-0.473  c0.334-0.096,0.668-0.19,1.002-0.288c0.591-0.174,1.18-0.354,1.769-0.533c0.294-0.09,0.589-0.177,0.883-0.268  c0.642-0.198,1.282-0.402,1.922-0.606c0.241-0.077,0.483-0.151,0.724-0.229c0.878-0.283,1.754-0.57,2.627-0.861  c0.737-0.246,1.473-0.456,2.209-0.638c0.046-0.012,0.093-0.025,0.139-0.037c0.706-0.171,1.412-0.308,2.117-0.42  c0.075-0.012,0.15-0.026,0.225-0.038c0.687-0.104,1.373-0.175,2.059-0.223c0.092-0.007,0.183-0.015,0.275-0.02  c0.676-0.04,1.351-0.051,2.025-0.037c0.1,0.002,0.2,0.003,0.3,0.007c0.67,0.021,1.34,0.07,2.009,0.145  c0.101,0.011,0.203,0.023,0.304,0.036c0.671,0.083,1.341,0.191,2.011,0.328c0.096,0.019,0.191,0.041,0.287,0.061  c0.677,0.146,1.353,0.315,2.028,0.515c0.084,0.025,0.168,0.052,0.252,0.078c0.688,0.21,1.376,0.445,2.063,0.712  c0.063,0.024,0.125,0.052,0.188,0.077c0.709,0.281,1.418,0.588,2.125,0.929c0.03,0.015,0.06,0.031,0.089,0.045  c1.468,0.713,2.932,1.556,4.391,2.528c0.036,0.024,0.071,0.045,0.107,0.069c0.7,0.469,1.399,0.973,2.098,1.501  c0.064,0.049,0.129,0.095,0.193,0.145c0.678,0.519,1.356,1.07,2.032,1.646c0.083,0.07,0.165,0.139,0.248,0.21  c0.663,0.571,1.325,1.171,1.986,1.796c0.095,0.089,0.189,0.179,0.284,0.269c0.652,0.625,1.304,1.277,1.954,1.954  c0.1,0.105,0.201,0.21,0.301,0.316c0.646,0.682,1.291,1.389,1.935,2.122c0.045,0.051,0.089,0.103,0.134,0.154  C495.09,273.914,489.782,288.609,486.95,295.445z"/>
<g>
</g>
<g>
</g>
<g>
</g>
<g>
</g>
<g>
</g>
<g>
</g>
<g>
</g>
<g>
</g>
<g>
</g>
<g>
</g>
<g>
</g>
<g>
</g>
<g>
</g>
<g>
</g>
<g>
</g>
</svg>
